{"title":"Grand Masti (2013) 350Mb Hindi DvDSCR X264 mkv [xRG] -=[ShareKin","uid":8921023,"size":358495793,"categoryP":"video","categoryS":"movies","magnet":"?xt=urn:btih:8e08bbd27191d1b8f9d6c357286e8d8be85d46b7&amp;dn=Grand+Masti+%282013%29+350Mb+Hindi+DvDSCR+X264+mkv+%5BxRG%5D+-%3D%5BShareKin&amp;tr=udp%3A%2F%2Ftracker.openbittorrent.com%3A80&amp;tr=udp%3A%2F%2Fopen.demonii.com%3A1337&amp;tr=udp%3A%2F%2Ftracker.coppersurfer.tk%3A6969&amp;tr=udp%3A%2F%2Fexodus.desync.com%3A6969","seeders":1,"leechers":0,"uploader":"Team_xRG","files":1,"time":1379254993,"description":"[CENTER][B][SIZE=&quot;7&quot;][COLOR=&quot;Red&quot;]Grand Masti (2013)[/COLOR][/SIZE][/B]\n\n[img]http://s6.postimg.org/udmnbjdgx/xrg.gif[/img]\n\n[img]http://cdn.koimoi.com/wp-content/new-galleries/2013/07/Grand-Masti-Movie-Poster-Pic-1.jpg[/img]\n\n[CODE]http://www.imdb.com/title/tt2476154/[/CODE]\n\n[B][SIZE=&quot;5&quot;][COLOR=&quot;Red&quot;]Rip Code[/COLOR][/SIZE][/B]\n\n[CODE]\nGeneral\nUnique ID                                : 246123398994832643489982737121999757201 (0xB929A4753BF2E6E6AA77418322469F91)\nComplete name                            : E:Ddh Upload My RipsGrand Masti (2013) 350Mb Hindi DvDSCR X264 mkv [xRG] -=[ShareKing]=-.mkv\nFormat                                   : Matroska\nFormat version                           : Version 2\nFile size                                : 342 MiB\nDuration                                 : 2h 13mn\nOverall bit rate                         : 358 Kbps\nEncoded date                             : UTC 2013-09-15 10:13:04\nWriting application                      : mkvmerge v6.2.0 ('Promised Land') built on Apr 28 2013 12:22:01\nWriting library                          : libebml v1.3.0 + libmatroska v1.4.0\n\nVideo\nID                                       : 1\nFormat                                   : AVC\nFormat/Info                              : Advanced Video Codec\nFormat profile                           : &lt;a class=&quot;__cf_email__&quot; href=&quot;/cdn-cgi/l/email-protection&quot; data-cfemail=&quot;a1e9c8c6c9e1ed928f91&quot;&gt;[email&amp;#160;protected]&lt;/a&gt;&lt;script cf-hash='f9e31' type=&quot;text/javascript&quot;&gt;\n/* &lt;![CDATA[ */!function(){try{var t=&quot;currentScript&quot;in document?document.currentScript:function(){for(var t=document.getElementsByTagName(&quot;script&quot;),e=t.length;e--;)if(t[e].getAttribute(&quot;cf-hash&quot;))return t[e]}();if(t&amp;&amp;t.previousSibling){var e,r,n,i,c=t.previousSibling,a=c.getAttribute(&quot;data-cfemail&quot;);if(a){for(e=&quot;&quot;,r=parseInt(a.substr(0,2),16),n=2;a.length-n;n+=2)i=parseInt(a.substr(n,2),16)^r,e+=String.fromCharCode(i);e=document.createTextNode(e),c.parentNode.replaceChild(e,c)}}}catch(u){}}();/* ]]&gt; */&lt;/script&gt;\nFormat settings, CABAC                   : Yes\nFormat settings, ReFrames                : 5 frames\nCodec ID                                 : V_MPEG4/ISO/AVC\nDuration                                 : 2h 13mn\nBit rate                                 : 266 Kbps\nWidth                                    : 720 pixels\nHeight                                   : 320 pixels\nDisplay aspect ratio                     : 2.25:1\nFrame rate mode                          : Constant\nFrame rate                               : 23.976 fps\nColor space                              : YUV\nChroma subsampling                       : 4:2:0\nBit depth                                : 8 bits\nScan type                                : Progressive\nBits/(Pixel*Frame)                       : 0.048\nStream size                              : 243 MiB (71%)\nWriting library                          : x264 core 133 r2334 a3ac64b\nEncoding settings                        : cabac=1 // deblock=1:-2:-1 / analyse=0x3:0x113 / \nme=umh / subme=5 / psy=1 / psy_rd=1.00:0.00 // me_range=16 / chroma_me=1 / trellis=1 \n/ 8x8dct=1 / cqm=0 / deadzone=21,11 / fast_pskip=1 / chroma_qp_offset=0 / threads=12 / lookahead_threads=2 \n/ sliced_threads=0 / nr=0 / decimate=1 / interlaced=0 / bluray_compat=0 / constrained_intra=0 / \nbframes=16 / b_pyramid=2 / b_adapt=1 / b_bias=0 / direct=3 / weightb=1 / open_gop=0 / weightp=2 \n/ keyint=240 / keyint_min=23 / scenecut=40 / intra_refresh=0 / rc_lookahead=40 / rc=2pass / \nmbtree=1 / bitrate=266 / ratetol=1.0 / qcomp=0.60 / qpmin=10 / qpmax=51 / qpstep=4 / cplxblur=20.0 \n/ qblur=0.5 / ip_ratio=1.40 / aq=2:1.00\nLanguage                                 : English\nDefault                                  : Yes\nForced                                   : No\n\nAudio\nID                                       : 2\nFormat                                   : MPEG Audio\nFormat version                           : Version 1\nFormat profile                           : Layer 3\nMode                                     : Joint stereo\nMode extension                           : MS Stereo\nCodec ID                                 : A_MPEG/L3\nCodec ID/Hint                            : MP3\nDuration                                 : 2h 13mn\nBit rate mode                            : Constant\nBit rate                                 : 96.0 Kbps\nChannel(s)                               : 2 channels\nSampling rate                            : 32.0 KHz\nCompression mode                         : Lossy\nStream size                              : 91.6 MiB (27%)\nWriting library                          : LAME3.99r\nEncoding settings                        : -m j -V 4 -q 2 -lowpass 15.1 -b 96\nDefault                                  : Yes\nForced                                   : No\n[/CODE]\n\n[B][SIZE=&quot;5&quot;][COLOR=&quot;Red&quot;]##ScreenShoot##[/COLOR][/SIZE][/B]\n\n[img]http://s6.postimg.org/nqa9dej8x/00001.png[/img]\n\n\n[img]http://s6.postimg.org/vmzbzdk35/vlcsnap_2013_09_15_16h00m45s254.png[/img]\n\n\n[img]http://s6.postimg.org/4dnykvj01/vlcsnap_2013_09_15_17h28m50s106.png[/img]\n\n\n[img]http://s6.postimg.org/ptkol2j1t/vlcsnap_2013_09_15_17h29m16s114.png[/img]\n\n\n[img]http://s6.postimg.org/5de9gky5t/vlcsnap_2013_09_15_17h29m27s196.png[/img]\n\n\n[img]http://s6.postimg.org/f9fcg83xt/vlcsnap_2013_09_15_17h29m39s86.png[/img]\n\n\n[img]http://s6.postimg.org/vpj7m7nqp/vlcsnap_2013_09_15_17h29m52s213.png[/img]\n\n\n[img]http://s6.postimg.org/tm8sejnxt/vlcsnap_2013_09_15_17h29m59s33.png[/img]\n\n\n[img]http://s6.postimg.org/riyd6vo4x/vlcsnap_2013_09_15_17h30m05s92.png[/img]\n\n\n[img]http://s6.postimg.org/e3bchffn5/vlcsnap_2013_09_15_17h30m16s203.png[/img]\n\n\n\n\n[B][SIZE=&quot;7&quot;][COLOR=&quot;Red&quot;]xRG xCLUSIVE rIP[/COLOR][/SIZE][/B][/CENTER]","torrent":{"xt":"urn:btih:8e08bbd27191d1b8f9d6c357286e8d8be85d46b7","amp;dn":"Grand+Masti+%282013%29+350Mb+Hindi+DvDSCR+X264+mkv+%5BxRG%5D+-%3D%5BShareKin","amp;tr":["udp%3A%2F%2Ftracker.openbittorrent.com%3A80","udp%3A%2F%2Fopen.demonii.com%3A1337","udp%3A%2F%2Ftracker.coppersurfer.tk%3A6969","udp%3A%2F%2Fexodus.desync.com%3A6969"],"infoHash":"8e08bbd27191d1b8f9d6c357286e8d8be85d46b7","infoHashBuffer":{"type":"Buffer","data":[142,8,187,210,113,145,209,184,249,214,195,87,40,110,141,139,232,93,70,183]},"announce":[],"urlList":[]}}